<?xml version="1.0" standalone="no"?>
<!DOCTYPE svg PUBLIC "-//W3C//DTD SVG 20010904//EN"
 "http://www.w3.org/TR/2001/REC-SVG-20010904/DTD/svg10.dtd">
<svg version="1.0" xmlns="http://www.w3.org/2000/svg"
 width="280.000000pt" height="280.000000pt" viewBox="0 0 280.000000 280.000000"
 preserveAspectRatio="xMidYMid meet">

<g transform="translate(0.000000,280.000000) scale(0.100000,-0.100000)"
fill="#000000" stroke="none">
<path d="M1275 2687 c-33 -18 -105 -60 -160 -92 -55 -32 -129 -75 -165 -95
-36 -20 -157 -90 -270 -155 -113 -65 -242 -139 -288 -166 -98 -55 -126 -80
-155 -134 -22 -39 -22 -48 -25 -624 -3 -656 -3 -655 65 -725 23 -23 125 -88
253 -161 294 -166 408 -231 599 -343 185 -108 228 -126 289 -119 59 6 15 -18
777 422 94 54 204 118 247 142 87 50 123 96 138 175 16 83 13 1122 -3 1185
-22 83 -51 115 -157 176 -52 29 -187 107 -300 172 -113 65 -239 137 -280 160
-41 23 -115 66 -165 95 -174 104 -211 120 -279 120 -50 0 -72 -6 -121 -33z
m345 -727 c150 -23 180 -51 180 -167 0 -123 -22 -137 -170 -109 -100 19 -304
21 -340 3 -18 -9 -25 -21 -25 -42 0 -36 8 -40 228 -124 270 -103 328 -153 357
-309 19 -109 -12 -223 -82 -289 -78 -75 -192 -103 -418 -102 -208 0 -326 20
-377 63 -25 21 -28 32 -31 100 -5 91 9 133 46 143 14 3 66 -2 116 -13 68 -14
132 -19 254 -19 160 0 164 1 183 24 10 13 19 27 19 33 0 25 -61 60 -215 122
-222 89 -287 125 -330 184 -43 60 -59 124 -53 221 9 156 101 252 269 280 75
12 311 13 389 1z"/>
</g>
</svg>
