<svg id="visual" viewBox="0 0 1920 500" width="1920" height="500" xmlns="http://www.w3.org/2000/svg" xmlns:xlink="http://www.w3.org/1999/xlink" version="1.1"><rect x="0" y="0" width="1920" height="500" fill="#002233"></rect><path d="M0 161L32 159.5C64 158 128 155 192 153.3C256 151.7 320 151.3 384 135.7C448 120 512 89 576 88C640 87 704 116 768 134.8C832 153.7 896 162.3 960 173C1024 183.7 1088 196.3 1152 174.3C1216 152.3 1280 95.7 1344 73.2C1408 50.7 1472 62.3 1536 88C1600 113.7 1664 153.3 1728 153.5C1792 153.7 1856 114.3 1888 94.7L1920 75L1920 0L1888 0C1856 0 1792 0 1728 0C1664 0 1600 0 1536 0C1472 0 1408 0 1344 0C1280 0 1216 0 1152 0C1088 0 1024 0 960 0C896 0 832 0 768 0C704 0 640 0 576 0C512 0 448 0 384 0C320 0 256 0 192 0C128 0 64 0 32 0L0 0Z" fill="#0066FF" stroke-linecap="round" stroke-linejoin="miter"></path></svg>