<?xml version="1.0" encoding="utf-8"?>
<svg viewBox="0 0 500 500" xmlns="http://www.w3.org/2000/svg">
  <path d="M 480.819 179.085 C 480.885 178.788 480.957 178.501 481.018 178.195 L 480.521 178.096 C 469.198 140.967 448.873 106.948 420.648 78.722 C 375.318 33.392 315.048 8.427 250.942 8.427 C 186.836 8.427 126.566 33.392 81.236 78.723 C 35.906 124.053 10.943 184.323 10.943 248.429 C 10.943 312.535 35.907 372.805 81.236 418.135 C 126.565 463.465 186.835 488.429 250.942 488.429 C 315.049 488.429 375.318 463.465 420.649 418.135 C 465.98 372.805 490.944 312.535 490.944 248.429 C 490.943 224.593 487.485 201.289 480.819 179.085 Z M 356.14 55.109 C 373.074 64.355 388.873 75.894 403.14 89.58 C 401.809 93.285 399.547 97.36 396.035 97.36 C 395.98 97.36 395.925 97.359 395.869 97.357 C 392.854 97.248 389.359 96.101 385.659 94.888 C 380.053 93.05 373.698 90.964 366.478 91.547 C 359.412 92.114 353.355 95.097 348.012 97.728 C 343.003 100.194 338.678 102.327 335.579 101.552 C 332.632 100.818 329.549 97.109 326.386 93.045 C 324.98 91.239 324.11 89.944 323.79 89.184 C 324.167 88.555 324.934 87.562 325.342 87.034 C 329.324 81.88 336.05 75.283 342.555 68.903 C 347.248 64.299 352.032 59.596 356.14 55.109 Z M 285.81 31.174 C 284.644 38.621 281.423 48.437 278.507 52.044 C 275.284 56.029 269.587 57.869 265.807 56.148 C 261.994 54.41 258.975 48.979 257.733 41.62 C 256.919 36.796 255.314 32.437 253.62 28.461 C 264.499 28.589 275.25 29.502 285.81 31.174 Z M 95.379 92.865 C 121.472 66.772 152.967 48.045 187.34 37.719 C 191.491 51.367 196.546 64.153 201.476 76.236 C 205.25 85.489 209.529 95.975 208.563 105.465 C 208.193 109.099 207.27 113.746 204.969 115.251 C 202.968 116.561 198.951 116.896 194.7 117.251 C 187.692 117.836 178.971 118.564 171.027 124.142 C 169.33 125.333 167.754 126.565 166.231 127.754 C 162.958 130.311 159.866 132.725 156.983 133.533 C 154.133 134.333 150.461 133.914 146.207 133.429 C 143.764 133.151 141.237 132.864 138.563 132.776 C 130.075 132.464 110.727 136.542 102.303 147.544 C 98.14 152.981 96.941 159.553 98.927 166.05 C 100.398 170.865 103.55 174.224 106.441 176.876 C 119.944 189.256 138.476 198.024 157.283 200.934 C 159.973 201.35 162.577 201.668 165.096 201.977 C 178.887 203.665 185.748 204.892 190.964 214.291 C 192.263 216.632 193.309 219.403 194.417 222.337 C 195.692 225.716 197.011 229.21 198.932 232.732 C 204.636 243.195 214.252 249.324 224.018 248.78 C 231.308 248.36 236.692 244.555 241.018 241.499 C 243.014 240.089 244.899 238.757 246.512 238.085 C 250.847 236.275 257.465 237.882 264.207 242.376 C 268.831 245.459 274.813 250.559 277.052 257.346 C 278.737 262.452 277.571 268.363 274.302 271.126 L 244.912 296.227 C 235.448 304.311 225.322 314.127 224.981 328.362 C 224.873 332.864 225.802 337.187 226.621 341.002 C 227.195 343.671 228.154 348.139 227.639 349.306 C 227.1 349.785 224.58 350.403 223.075 350.772 C 220.423 351.421 217.418 352.157 214.364 353.7 C 199.558 361.176 198.175 378.888 197.259 390.61 C 196.595 399.113 193.441 406.269 190.226 406.563 C 187.611 406.814 183.918 402.293 182.635 397.282 C 181.839 394.173 181.465 390.707 181.069 387.037 C 180.499 381.75 179.852 375.757 177.729 369.872 C 174.993 362.289 170.23 356.038 166.028 350.523 C 161.901 345.105 158.002 339.988 156.743 334.665 C 155.8 330.678 156.18 325.887 156.584 320.813 C 157.098 314.353 157.68 307.031 155.631 299.578 C 152.719 288.984 145.503 281.414 139.136 274.733 C 134.955 270.347 131.006 266.204 128.66 261.728 C 125.832 256.332 126.183 250.676 126.59 244.127 C 126.975 237.92 127.412 230.884 124.941 223.645 C 122.473 216.416 116.639 212.24 112.318 209.146 C 99.65 200.077 87.784 189.749 77.051 178.448 C 71.313 172.407 65.704 165.809 63.531 158.506 C 62.963 156.597 62.57 155.155 62.261 154.027 C 60.888 148.999 60.079 147.203 57.194 144.01 C 67.237 125.436 80.03 108.214 95.379 92.865 Z M 250.942 468.429 C 192.178 468.429 136.931 445.545 95.379 403.992 C 53.827 362.44 30.943 307.193 30.943 248.429 C 30.943 220.633 36.07 193.626 45.864 168.48 C 49.643 177.811 56.06 185.387 62.55 192.22 C 74.154 204.437 86.982 215.603 100.737 225.449 C 102.68 226.841 105.618 228.944 106.014 230.105 C 107.205 233.595 106.938 237.902 106.629 242.887 C 106.137 250.809 105.526 260.666 110.946 271.009 C 114.594 277.97 119.711 283.338 124.659 288.53 C 130.084 294.221 134.769 299.137 136.346 304.877 C 137.464 308.944 137.067 313.94 136.647 319.227 C 136.163 325.319 135.614 332.223 137.28 339.267 C 139.517 348.727 145.15 356.12 150.119 362.642 C 153.772 367.437 157.222 371.965 158.915 376.658 C 160.224 380.286 160.69 384.607 161.183 389.181 C 161.637 393.39 162.107 397.742 163.259 402.241 C 166.435 414.649 176.502 426.576 189.941 426.575 C 190.632 426.575 191.334 426.544 192.043 426.479 C 206.006 425.205 215.644 412.056 217.197 392.166 C 217.797 384.48 218.619 373.954 223.377 371.553 C 224.393 371.039 226.063 370.63 227.831 370.198 C 231.914 369.198 237.504 367.829 241.942 363.284 C 250.073 354.957 247.82 344.464 246.174 336.804 C 245.531 333.808 244.923 330.979 244.974 328.843 C 245.118 322.846 251.722 316.713 257.9 311.436 L 287.253 286.364 C 296.808 278.284 300.341 264.104 296.044 251.079 C 292.858 241.422 285.685 232.658 275.298 225.733 C 262.612 217.279 249.657 215.109 238.819 219.621 C 235.162 221.144 232.14 223.28 229.473 225.164 C 226.998 226.913 224.439 228.722 222.864 228.812 C 221.293 228.913 218.482 226.813 216.489 223.158 C 215.231 220.85 214.209 218.141 213.126 215.273 C 211.814 211.797 210.457 208.203 208.45 204.585 C 198.058 185.859 181.836 183.875 167.524 182.123 C 165.16 181.834 162.716 181.535 160.339 181.167 C 145.338 178.848 130.619 171.91 119.957 162.135 C 118.612 160.902 118.167 160.34 118.022 160.098 C 118.008 160.042 117.999 159.999 117.994 159.968 C 119.315 156.895 131.294 152.572 137.904 152.764 C 139.773 152.826 141.798 153.057 143.942 153.301 C 149.48 153.932 155.756 154.648 162.379 152.791 C 169.065 150.917 174.099 146.985 178.541 143.517 C 179.928 142.433 181.239 141.41 182.52 140.51 C 186.032 138.044 190.82 137.645 196.364 137.182 C 207.331 136.267 225.687 134.735 228.461 107.491 C 229.932 93.04 224.422 79.534 219.995 68.682 C 215.371 57.347 210.63 45.395 206.759 32.85 C 215.082 31.162 223.538 29.958 232.095 29.236 C 232.574 30.333 233.056 31.417 233.536 32.482 C 235.488 36.816 237.332 40.909 238.015 44.949 C 240.433 59.278 247.359 69.72 257.515 74.348 C 261.151 76.005 265.074 76.799 269.031 76.799 C 278.292 76.799 287.734 72.446 294.062 64.618 C 299.154 58.317 303.595 46.072 305.385 35.186 C 316.3 37.952 326.95 41.559 337.267 45.959 C 334.501 48.789 331.505 51.729 328.552 54.624 C 321.564 61.478 314.339 68.564 309.517 74.807 C 307.608 77.278 304.724 81.011 303.908 86.176 C 302.523 94.947 307.982 101.96 310.605 105.33 C 314.684 110.571 320.849 118.491 330.741 120.959 C 332.877 121.491 334.952 121.723 336.963 121.722 C 344.56 121.722 351.246 118.43 356.848 115.671 C 360.948 113.652 364.821 111.745 368.079 111.483 C 371.29 111.221 375.062 112.462 379.429 113.893 C 384.059 115.411 389.307 117.131 395.145 117.343 C 404.491 117.688 412.345 113.231 417.741 104.956 C 436.55 126.755 450.682 151.677 459.638 178.483 C 458.166 179.547 455.17 179.687 448.138 179.775 C 445.083 179.813 441.621 179.856 437.93 180.14 C 427.649 180.929 419.698 177.985 410.493 174.574 C 404.313 172.284 397.923 169.916 390.283 168.398 C 371.035 164.567 351.145 175.324 339.611 195.794 C 337.514 199.516 319.506 232.683 332.83 251.035 C 337.808 257.89 344.855 262.116 350.518 265.512 C 358.55 270.326 366.856 275.304 376.055 279.015 C 378.024 279.81 380.013 280.544 381.936 281.254 C 388.934 283.837 395.543 286.277 398.783 290.711 C 401.494 294.422 402.392 300.295 401.53 308.666 C 400.875 315.019 398.508 321.476 396.001 328.311 C 390.38 343.641 383.384 362.72 399.784 381.46 C 404.461 386.804 410.076 390.874 416.287 393.548 C 413.148 397.114 409.896 400.603 406.507 403.992 C 364.953 445.545 309.706 468.429 250.942 468.429 Z M 429.634 376.823 C 423.929 375.801 418.875 372.906 414.834 368.289 C 406.626 358.91 409.17 350.492 414.778 335.197 C 417.598 327.509 420.513 319.557 421.424 310.718 C 422.817 297.202 420.694 286.799 414.932 278.913 C 408.132 269.605 397.894 265.826 388.862 262.492 C 386.994 261.803 385.23 261.151 383.537 260.469 C 375.792 257.344 368.51 252.98 360.801 248.36 C 356.274 245.645 351.592 242.839 349.013 239.287 C 345.843 234.921 349.741 218.556 357.034 205.614 C 362.513 195.893 373.488 185.456 386.384 188.016 C 392.464 189.224 397.845 191.218 403.543 193.329 C 413.998 197.203 424.813 201.218 439.464 200.083 C 442.514 199.849 445.501 199.811 448.389 199.774 C 453.584 199.709 459.61 199.63 465.116 197.837 C 468.955 214.228 470.943 231.174 470.943 248.429 C 470.943 295.16 456.457 339.658 429.634 376.823 Z" style="fill: rgb(255, 255, 255);"/>
  <g transform="matrix(1, 0, 0, 1, 21.004781, 56.854333)"/>
  <g transform="matrix(1, 0, 0, 1, 21.004781, 56.854333)"/>
  <g transform="matrix(1, 0, 0, 1, 21.004781, 56.854333)"/>
  <g transform="matrix(1, 0, 0, 1, 21.004781, 56.854333)"/>
  <g transform="matrix(1, 0, 0, 1, 21.004781, 56.854333)"/>
  <g transform="matrix(1, 0, 0, 1, 21.004781, 56.854333)"/>
  <g transform="matrix(1, 0, 0, 1, 21.004781, 56.854333)"/>
  <g transform="matrix(1, 0, 0, 1, 21.004781, 56.854333)"/>
  <g transform="matrix(1, 0, 0, 1, 21.004781, 56.854333)"/>
  <g transform="matrix(1, 0, 0, 1, 21.004781, 56.854333)"/>
  <g transform="matrix(1, 0, 0, 1, 21.004781, 56.854333)"/>
  <g transform="matrix(1, 0, 0, 1, 21.004781, 56.854333)"/>
  <g transform="matrix(1, 0, 0, 1, 21.004781, 56.854333)"/>
  <g transform="matrix(1, 0, 0, 1, 21.004781, 56.854333)"/>
  <g transform="matrix(1, 0, 0, 1, 21.004781, 56.854333)"/>
</svg>