<?xml version="1.0" standalone="no"?><svg xmlns:xlink="http://www.w3.org/1999/xlink" xmlns="http://www.w3.org/2000/svg" viewBox="0 0 1000 666.6666666666666" preserveAspectRatio="xMaxYMax slice"><g transform="scale(1.3605442176870748)"><rect x="0" y="0" width="735" height="490" fill="#090A0A"/><rect x="321.5625" y="15.3125" width="30.625" height="30.625" fill="#090A0A"/><rect x="444.0625" y="15.3125" width="30.625" height="30.625" fill="#090A0A"/><g transform="translate(459.38,15.31) scale(0.7655000000000001) rotate(0)"><path fill-rule="evenodd" clip-rule="evenodd" d="M10 20C15.5228 20 20 15.5228 20 10C20 4.47715 15.5228 0 10 0C4.47715 0 0 4.47715 0 10C0 15.5228 4.47715 20 10 20ZM10 17C13.866 17 17 13.866 17 10C17 6.13401 13.866 3 10 3C6.13401 3 3 6.13401 3 10C3 13.866 6.13401 17 10 17Z" fill="#0f1c39"/></g><g transform="translate(566.56,15.31) scale(1.5314999999999999) rotate(0)"><path d="M10 0H20L0 20V10L10 0Z" fill="#0b121e"/><path d="M20 10V20H10L20 10Z" fill="#0b121e"/></g><rect x="137.8125" y="76.5625" width="30.625" height="30.625" fill="#090A0A"/><g transform="translate(137.81,76.56) scale(0.7655000000000001) rotate(0)"><path d="M10 0H20L0 20V10L10 0Z" fill="#183982"/><path d="M20 10V20H10L20 10Z" fill="#183982"/></g><rect x="689.0625" y="76.5625" width="30.625" height="30.625" fill="#090A0A"/><rect x="321.5625" y="137.8125" width="30.625" height="30.625" fill="#090A0A"/><g transform="translate(321.56,137.81) scale(0.7655000000000001) rotate(0)"><path d="M10 0H20L0 20V10L10 0Z" fill="#0f1e3c"/><path d="M20 10V20H10L20 10Z" fill="#0f1e3c"/></g><rect x="566.5625" y="137.8125" width="30.625" height="30.625" fill="#090A0A"/><g transform="translate(627.81,199.06) scale(1.5314999999999999) rotate(0)"><path fill-rule="evenodd" clip-rule="evenodd" d="M10 20C15.5228 20 20 15.5228 20 10C20 4.47715 15.5228 0 10 0C4.47715 0 0 4.47715 0 10C0 15.5228 4.47715 20 10 20ZM10 17C13.866 17 17 13.866 17 10C17 6.13401 13.866 3 10 3C6.13401 3 3 6.13401 3 10C3 13.866 6.13401 17 10 17Z" fill="#193e90"/></g><g transform="translate(505.31,260.31) scale(1.5314999999999999) rotate(0)"><path d="M10 0H20L0 20V10L10 0Z" fill="#102146"/><path d="M20 10V20H10L20 10Z" fill="#102146"/></g><rect x="382.8125" y="321.5625" width="30.625" height="30.625" fill="#090A0A"/><g transform="translate(689.06,382.81) scale(1.5314999999999999) rotate(0)"><path d="M10 0H20L0 20V10L10 0Z" fill="#1e4cb4"/><path d="M20 10V20H10L20 10Z" fill="#1e4cb4"/></g><g transform="translate(444.06,444.06) scale(1.5314999999999999) rotate(0)"><path d="M10 0H20L0 20V10L10 0Z" fill="#163271"/><path d="M20 10V20H10L20 10Z" fill="#163271"/></g></g></svg>