<?xml version="1.0" standalone="no"?><svg xmlns:xlink="http://www.w3.org/1999/xlink" xmlns="http://www.w3.org/2000/svg" viewBox="0 0 1000 666.6666666666667" preserveAspectRatio="xMaxYMax slice"><g transform="scale(1.5389350569405973)"><rect x="0" y="0" width="649.8000000000001" height="433.20000000000005" fill="#090A0A"/><path d="M 392.59 40.62 A 27.08 27.08 0 0 1  419.66999999999996 13.54 L 392.59 40.62 A 27.08 27.08 0 0 0 419.66999999999996 13.54" fill="#122755"/><rect x="609.1875000000001" y="13.537500000000001" width="27.075000000000003" height="27.075000000000003" fill="#090A0A"/><path d="M 622.73 27.08 A 13.54 13.54 0 0 1  636.27 40.62 L 622.73 27.08 A 13.54 13.54 0 0 0 636.27 40.62" fill="#1a4199"/><g transform="translate(392.59,67.69) scale(1.3539999999999999) rotate(0)"><path fill-rule="evenodd" clip-rule="evenodd" d="M10 20C15.5228 20 20 15.5228 20 10C20 4.47715 15.5228 0 10 0C4.47715 0 0 4.47715 0 10C0 15.5228 4.47715 20 10 20ZM10 17C13.866 17 17 13.866 17 10C17 6.13401 13.866 3 10 3C6.13401 3 3 6.13401 3 10C3 13.866 6.13401 17 10 17Z" fill="#163476"/></g><path d="M 609.19 284.29 A 27.08 27.08 0 0 1  636.2700000000001 311.37 L 609.19 284.29 A 27.08 27.08 0 0 0 636.2700000000001 311.37" fill="#163374"/><path d="M 392.59 392.59 A 27.08 27.08 0 0 1  419.66999999999996 419.66999999999996 L 392.59 392.59 A 27.08 27.08 0 0 0 419.66999999999996 419.66999999999996" fill="#132a5d"/></g></svg>