<?xml version="1.0" standalone="no"?><svg xmlns:xlink="http://www.w3.org/1999/xlink" xmlns="http://www.w3.org/2000/svg" viewBox="0 0 1900 950" preserveAspectRatio="xMaxYMax slice"><g transform="scale(1.9387755102040816)"><rect x="0" y="0" width="980" height="490" fill="#11002c"/><g transform="translate(392,24.5) scale(0.6125) rotate(0)"><path d="M10 5L5 0L0 5L5 10L0 15L5 20L10 15L15 20L20 15L15 10L20 5L15 0L10 5Z" fill="#134b2f"/></g><g transform="translate(637,24.5) scale(0.6125) rotate(0)"><path d="M10 1L12.2451 7.90983H19.5106L13.6327 12.1803L15.8779 19.0902L10 14.8197L4.12215 19.0902L6.36729 12.1803L0.489441 7.90983H7.75487L10 1Z" fill="#17b234"/></g><g transform="translate(85.75,85.75) scale(0.6125) rotate(0)"><path d="M10 1L12.2451 7.90983H19.5106L13.6327 12.1803L15.8779 19.0902L10 14.8197L4.12215 19.0902L6.36729 12.1803L0.489441 7.90983H7.75487L10 1Z" fill="#146430"/></g><rect x="330.75" y="85.75" width="12.25" height="12.25" fill="#11002c"/><rect x="147" y="147" width="12.25" height="12.25" fill="#11002c"/><g transform="translate(392,147) scale(0.6125) rotate(0)"><path fill-rule="evenodd" clip-rule="evenodd" d="M10 20C15.5228 20 20 15.5228 20 10C20 4.47715 15.5228 0 10 0C4.47715 0 0 4.47715 0 10C0 15.5228 4.47715 20 10 20ZM10 17C13.866 17 17 13.866 17 10C17 6.13401 13.866 3 10 3C6.13401 3 3 6.13401 3 10C3 13.866 6.13401 17 10 17Z" fill="#17c135"/></g><g transform="translate(453.25,147) scale(0.6125) rotate(0)"><path d="M10 1L12.2451 7.90983H19.5106L13.6327 12.1803L15.8779 19.0902L10 14.8197L4.12215 19.0902L6.36729 12.1803L0.489441 7.90983H7.75487L10 1Z" fill="#110d2d"/></g><g transform="translate(698.25,147) scale(0.6125) rotate(0)"><path d="M10 1L12.2451 7.90983H19.5106L13.6327 12.1803L15.8779 19.0902L10 14.8197L4.12215 19.0902L6.36729 12.1803L0.489441 7.90983H7.75487L10 1Z" fill="#158032"/></g><rect x="820.75" y="147" width="12.25" height="12.25" fill="#11002c"/><g transform="translate(330.75,208.25) scale(0.6125) rotate(0)"><path d="M10 5L5 0L0 5L5 10L0 15L5 20L10 15L15 20L20 15L15 10L20 5L15 0L10 5Z" fill="#11012c"/></g><rect x="820.75" y="208.25" width="12.25" height="12.25" fill="#11002c"/><g transform="translate(882,208.25) scale(0.6125) rotate(0)"><path d="M10 5L5 0L0 5L5 10L0 15L5 20L10 15L15 20L20 15L15 10L20 5L15 0L10 5Z" fill="#145d30"/></g><g transform="translate(943.25,208.25) scale(0.6125) rotate(0)"><path d="M10 1L12.2451 7.90983H19.5106L13.6327 12.1803L15.8779 19.0902L10 14.8197L4.12215 19.0902L6.36729 12.1803L0.489441 7.90983H7.75487L10 1Z" fill="#169733"/></g><g transform="translate(820.75,330.75) scale(0.6125) rotate(0)"><path d="M10 1L12.2451 7.90983H19.5106L13.6327 12.1803L15.8779 19.0902L10 14.8197L4.12215 19.0902L6.36729 12.1803L0.489441 7.90983H7.75487L10 1Z" fill="#157e32"/></g><g transform="translate(882,330.75) scale(0.6125) rotate(0)"><path d="M10 5L5 0L0 5L5 10L0 15L5 20L10 15L15 20L20 15L15 10L20 5L15 0L10 5Z" fill="#17b334"/></g><rect x="698.25" y="392" width="12.25" height="12.25" fill="#11002c"/><g transform="translate(759.5,392) scale(0.6125) rotate(0)"><path d="M10 5L5 0L0 5L5 10L0 15L5 20L10 15L15 20L20 15L15 10L20 5L15 0L10 5Z" fill="#17c034"/></g><g transform="translate(820.75,392) scale(0.6125) rotate(0)"><path d="M10 5L5 0L0 5L5 10L0 15L5 20L10 15L15 20L20 15L15 10L20 5L15 0L10 5Z" fill="#11102d"/></g><rect x="514.5" y="453.25" width="12.25" height="12.25" fill="#11002c"/><g transform="translate(520.63,453.25) scale(0.3065) rotate(0)"><path d="M10 5L5 0L0 5L5 10L0 15L5 20L10 15L15 20L20 15L15 10L20 5L15 0L10 5Z" fill="#122a2e"/></g><g transform="translate(520.63,459.38) scale(0.3065) rotate(0)"><path d="M10 1L12.2451 7.90983H19.5106L13.6327 12.1803L15.8779 19.0902L10 14.8197L4.12215 19.0902L6.36729 12.1803L0.489441 7.90983H7.75487L10 1Z" fill="#146530"/></g></g></svg>