<?xml version="1.0" standalone="no"?><svg xmlns:xlink="http://www.w3.org/1999/xlink" xmlns="http://www.w3.org/2000/svg" viewBox="0 0 1800 900" preserveAspectRatio="xMaxYMax slice"><g transform="scale(1.836734693877551)"><rect x="0" y="0" width="980" height="490" fill="#2D2424"/><polygon points="168.44,15.31 168.44,45.94 137.81,45.94" fill="#706c77"/><polygon points="872.81,15.31 903.4399999999999,15.31 872.81,45.94" fill="#554e55"/><polygon points="842.1899999999999,137.81 842.1899999999999,168.44 811.56,168.44" fill="#8f8d9e"/><polygon points="872.81,137.81 903.4399999999999,168.44 872.81,168.44" fill="#4d474c"/><polygon points="750.31,199.06 780.9399999999999,199.06 750.31,229.69" fill="#726d79"/><polygon points="689.06,260.31 719.6899999999999,260.31 719.6899999999999,290.94" fill="#878494"/><g transform="translate(872.81,260.31) scale(1.5314999999999999) rotate(0)"><path d="M10 0L20 10L10 20L0 10L10 0Z" fill="#a8a7bd"/></g><g transform="translate(137.81,321.56) scale(1.5314999999999999) rotate(0)"><path d="M10 0L20 10L10 20L0 10L10 0Z" fill="#6a6570"/></g><g transform="translate(934.06,321.56) scale(1.5314999999999999) rotate(0)"><path d="M10 0L20 10L10 20L0 10L10 0Z" fill="#3e373a"/></g><polygon points="15.31,444.06 45.94,444.06 45.94,474.69" fill="#4e474d"/><polygon points="934.06,444.06 964.6899999999999,474.69 934.06,474.69" fill="#abaac0"/></g></svg>